<?xml version="1.0" encoding="UTF-8"?>
<svg version="1.1" xmlns="http://www.w3.org/2000/svg" width="600" height="601">
<path d="M0 0 C198 0 396 0 600 0 C600 198.33 600 396.66 600 601 C402 601 204 601 0 601 C0 402.67 0 204.34 0 0 Z " fill="#F6F8FD" transform="translate(0,0)"/>
<path d="M0 0 C7.3005735 6.13829302 12.03786983 14.18210827 16.23982453 22.61863232 C16.74448991 23.60855584 17.24915528 24.59847937 17.76911354 25.61840057 C19.38671649 28.79868741 20.98778062 31.98695714 22.5880301 35.17600536 C23.653994 37.28047146 24.72081284 39.38450472 25.78847718 41.48810863 C28.94975205 47.72797166 32.08958355 53.97846543 35.22503519 60.23133659 C36.5122588 62.79761308 37.80087245 65.36319059 39.0894644 67.9287802 C43.68152528 77.07168453 48.26821781 86.21727771 52.8536551 95.36350536 C53.39733053 96.44789387 53.39733053 96.44789387 53.95198929 97.55418921 C61.16989146 111.95083886 68.38555451 126.34861004 75.59674668 140.74862194 C77.17014351 143.89044821 78.74357127 147.03225898 80.31703401 150.17405224 C80.70799975 150.95471306 81.0989655 151.73537388 81.50177869 152.53969109 C87.86498511 165.24464622 94.23924135 177.9440255 100.61777547 190.64129102 C107.18716897 203.71899516 113.74600137 216.80195337 120.29469109 229.89003754 C123.9639055 237.22256074 127.63780715 244.55265277 131.3237555 251.87678051 C134.45387275 258.09647775 137.57451959 264.32080819 140.6827707 270.55146372 C142.26764127 273.72767808 143.85697476 276.90144343 145.45859933 280.06924725 C147.19412304 283.50218878 148.90785325 286.94573316 150.61958528 290.39060497 C151.12889596 291.38951858 151.63820665 292.38843218 152.16295099 293.41761589 C154.70705204 298.58703679 156.37882321 302.38870302 155.5880301 308.17600536 C154.08412385 310.32834911 154.08412385 310.32834911 152.0255301 312.11350536 C149.25999566 314.63729728 146.68574212 317.12199106 144.2755301 319.98850536 C141.28138676 323.4506987 138.16252456 326.77875865 134.9630301 330.05100536 C134.06326447 330.97655224 133.16349885 331.90209911 132.2364676 332.85569286 C128.0491468 336.52423056 124.49098609 337.42526238 118.99034142 337.43327427 C117.86899989 337.43972316 116.74765836 337.44617205 115.59233677 337.45281637 C114.3654099 337.44971916 113.13848302 337.44662196 111.87437654 337.4434309 C109.91337972 337.45022757 109.91337972 337.45022757 107.91276681 337.45716155 C104.28536973 337.46939816 100.65806483 337.4691303 97.03065181 337.46677279 C93.11773117 337.46636478 89.20484015 337.47740245 85.2919333 337.48688793 C77.62537649 337.5035037 69.95885044 337.50899778 62.29227714 337.51011269 C56.05869479 337.51106311 49.82512258 337.51517313 43.59154344 337.52151394 C25.9134547 337.53912974 8.23539026 337.54835255 -9.44270732 337.54685299 C-10.39581592 337.54677308 -11.34892453 337.54669317 -12.33091521 337.54661083 C-13.28518963 337.54652907 -14.23946405 337.54644731 -15.22265588 337.54636307 C-30.67964672 337.54555059 -46.13654002 337.56467768 -61.59350266 337.59288757 C-77.46926523 337.62163274 -93.34498027 337.63542689 -109.22076952 337.63370001 C-118.13184635 337.63303656 -127.04282099 337.63850882 -135.95387435 337.66005611 C-143.54313615 337.67828966 -151.13224947 337.68259762 -158.72152372 337.66903727 C-162.59128436 337.66251787 -166.46076032 337.66235274 -170.33049369 337.67974377 C-174.53268151 337.69843393 -178.73421342 337.68589283 -182.93641448 337.67048168 C-184.7567283 337.68591237 -184.7567283 337.68591237 -186.61381614 337.70165479 C-197.21367651 337.6159079 -205.93828801 335.4467738 -213.7010324 327.95334911 C-214.26564178 327.36682568 -214.83025115 326.78030224 -215.4119699 326.17600536 C-216.3194699 325.24788036 -217.2269699 324.31975536 -218.1619699 323.36350536 C-222.46174172 317.27216196 -225.51757466 309.66779108 -225.7244699 302.17600536 C-225.76185271 301.30975536 -225.79923553 300.44350536 -225.83775115 299.55100536 C-224.6777702 290.35629399 -219.93389302 281.78140432 -215.8216989 273.59432507 C-215.26856261 272.48125581 -214.71542632 271.36818655 -214.14552832 270.22138792 C-212.62370043 267.16213149 -211.09662382 264.1056061 -209.56713319 261.05018079 C-207.91313745 257.74280551 -206.26603415 254.43199937 -204.61796355 251.12166882 C-201.39393431 244.64878171 -198.16331286 238.17920713 -194.93001941 231.71094339 C-192.30070887 226.45089298 -189.67330211 221.18989606 -187.04721618 215.92823505 C-179.59095772 200.98932711 -172.1296964 186.05293348 -164.66197827 171.11975067 C-164.05917628 169.91432648 -164.05917628 169.91432648 -163.44419646 168.68455029 C-163.04183334 167.87994669 -162.63947022 167.07534309 -162.22491428 166.24635757 C-155.70251273 153.20277417 -149.19210958 140.15324349 -142.68711475 127.10097175 C-135.99732691 113.67825881 -129.29856265 100.26005939 -122.59047842 86.84648043 C-118.82870609 79.32392986 -115.07061779 71.79959177 -111.32219481 64.27037907 C-108.13155285 57.86172004 -104.93255897 51.45731621 -101.72283652 45.05819076 C-100.08743416 41.79715002 -98.45587146 38.53434131 -96.83483672 35.2661314 C-95.07302045 31.71438343 -93.29247373 28.17221993 -91.51017547 24.63070202 C-91.00703771 23.60899581 -90.50389995 22.58728961 -89.98551559 21.53462261 C-81.70510817 5.20828829 -69.63897219 -5.59229403 -52.25181365 -11.56618214 C-33.9312729 -16.56580634 -14.75846317 -11.16073532 0 0 Z " fill="#5420AB" transform="translate(334.4119699001312,116.82399463653564)"/>
<path d="M0 0 C8.85821204 6.71463829 12.99667084 17.37817216 17.73925781 27.11767578 C19.730108 31.20099866 21.76199503 35.2630741 23.79695129 39.32455444 C24.09413559 39.91773468 24.39131989 40.51091492 24.69750977 41.12207031 C25.14382248 42.01279236 25.14382248 42.01279236 25.59915161 42.92150879 C26.49970207 44.72206057 27.39672956 46.52432597 28.29272461 48.32714844 C31.66986252 55.11237707 35.11861829 61.84897137 38.6875 68.53515625 C42.3377043 75.37653069 45.70505999 82.31524743 48.97949219 89.34326172 C52.03393556 95.85645254 55.3386764 102.21520085 58.71704102 108.56518555 C62.35138803 115.39922323 65.82946815 122.30127656 69.26513672 129.23681641 C70.98388332 132.69926281 72.71439891 136.15580496 74.4440918 139.61279297 C75.86741172 142.45749005 77.28918417 145.3029572 78.7109375 148.1484375 C80.31489744 151.35692737 81.92302792 154.56320088 83.5390625 157.765625 C87.0466477 164.7266076 90.44609518 171.72502205 93.75 178.78515625 C97.19446045 186.13885922 100.88822192 193.32616809 104.71435547 200.48754883 C107.42285875 205.58451688 109.95957261 210.73096452 112.375 215.97265625 C115.53735303 222.82990996 118.95359393 229.52178712 122.5234375 236.17578125 C125.84782161 242.38947907 128.99963682 248.68532783 132.140625 254.99291992 C134.0987292 258.92412605 136.07166048 262.84771478 138.04858398 266.76948547 C139.73383375 270.11335288 141.41509611 273.45921825 143.09619141 276.80517578 C143.96168433 278.52591715 144.82858721 280.24594995 145.69677734 281.96533203 C146.96822857 284.48415576 148.23461637 287.00546759 149.5 289.52734375 C149.89050537 290.29803192 150.28101074 291.06872009 150.68334961 291.86276245 C153.375 297.24491648 153.375 297.24491648 153.375 299.47265625 C148.755 299.47265625 144.135 299.47265625 139.375 299.47265625 C95.155 211.03265625 50.935 122.59265625 5.375 31.47265625 C1.085 31.47265625 -3.205 31.47265625 -7.625 31.47265625 C-7.12722498 36.92013781 -5.63924905 41.0720794 -3.0625 45.91015625 C-2.33176248 47.32538209 -1.60130145 48.74075072 -0.87109375 50.15625 C-0.49710449 50.87280762 -0.12311523 51.58936523 0.26220703 52.32763672 C2.00628085 55.68951311 3.68882082 59.08148358 5.375 62.47265625 C6.04134073 63.8061525 6.70800823 65.13948552 7.375 66.47265625 C19.375 90.47265625 19.375 90.47265625 20.31905031 92.36076075 C20.98471175 93.69208118 21.65037686 95.02339978 22.31604719 96.35471576 C23.9418773 99.60632977 25.56765318 102.85797085 27.19324493 106.10970402 C31.89058406 115.50568563 36.59092028 124.90016485 41.29243088 134.29405975 C50.6089063 152.90907754 59.92288297 171.52534488 69.23567963 190.14220333 C74.6101429 200.88595094 79.98537062 211.62931489 85.36230469 222.37182617 C90.07215898 231.78159271 94.7806239 241.19205289 99.48739672 250.60336119 C101.97453132 255.57632496 104.46237331 260.54893202 106.95188904 265.52070427 C109.28471573 270.17960626 111.61569509 274.83942764 113.94521713 279.49998283 C114.80240205 281.21407618 115.6602793 282.9278235 116.51887894 284.64120865 C117.6851154 286.96875114 118.84891908 289.29749354 120.01208496 291.62657166 C120.35681335 292.31311559 120.70154174 292.99965953 121.05671644 293.70700783 C123.375 298.35853357 123.375 298.35853357 123.375 299.47265625 C118.425 299.47265625 113.475 299.47265625 108.375 299.47265625 C100.66066732 285.81449347 93.46001561 272.02404297 86.76513672 257.83984375 C82.69355112 249.21581374 78.47170054 240.71051485 73.98925781 232.29248047 C70.70726862 226.12808233 67.55100981 219.91049414 64.4500885 213.65342712 C62.66205277 210.04842222 60.86516243 206.44793831 59.06420898 202.84936523 C55.22296388 195.17094537 51.38665347 187.49006488 47.55102539 179.80883789 C41.15850211 167.00748464 34.76398148 154.20713026 28.3682642 141.40737247 C24.5153353 133.69636 20.66316679 125.98496937 16.81274414 118.27270508 C13.42755894 111.49230188 10.04092117 104.71262644 6.65260881 97.93378538 C4.86902837 94.36533528 3.08612268 90.79655209 1.30497932 87.22688484 C-8.10789222 68.29304602 -8.10789222 68.29304602 -17.92232418 49.56569767 C-20.7563805 44.30858272 -23.23583488 38.94461507 -25.625 33.47265625 C-32.555 32.97765625 -32.555 32.97765625 -39.625 32.47265625 C-39.65579855 37.47649991 -39.65579855 37.47649991 -37.71875 41.5546875 C-37.30874756 42.31330078 -36.89874512 43.07191406 -36.47631836 43.85351562 C-36.0303833 44.65595703 -35.58444824 45.45839844 -35.125 46.28515625 C-34.1979256 47.99930124 -33.27216229 49.71415592 -32.34765625 51.4296875 C-31.88504395 52.28256348 -31.42243164 53.13543945 -30.94580078 54.01416016 C-29.08922084 57.46993834 -27.3117831 60.96157602 -25.5625 64.47265625 C-25.24200684 65.11460937 -24.92151367 65.7565625 -24.59130859 66.41796875 C-22.06895656 71.50548858 -19.65849238 76.64302502 -17.25 81.78515625 C-13.83959584 89.05886271 -10.22612454 96.19862614 -6.42626953 103.27661133 C-4.00791285 107.79214472 -1.67507765 112.34402826 0.61157227 116.92773438 C0.95009531 117.60585521 1.28861835 118.28397604 1.63739967 118.98264599 C2.42765576 120.56570855 3.21769153 122.1488811 4.00755882 123.73213768 C6.4198753 128.56671354 8.83450995 133.40013183 11.24868667 138.23377895 C12.19962611 140.13781509 13.15048841 142.04188973 14.10132694 143.94597626 C19.84255172 155.44290927 25.58589889 166.93878134 31.32992363 178.43431568 C35.17497823 186.12957591 39.01927373 193.82521364 42.86181641 201.52172852 C46.24078073 208.28970129 49.62120563 215.05694228 53.00330269 221.82335013 C54.78300337 225.38403882 56.5620336 228.94505843 58.33929062 232.50696754 C65.5584622 246.97422778 72.81927759 261.40979954 80.42520142 275.67902756 C82.67799184 279.93326589 84.84584772 284.23038309 87 288.53515625 C87.43183594 289.38658203 87.86367188 290.23800781 88.30859375 291.11523438 C88.71464844 291.92541016 89.12070312 292.73558594 89.5390625 293.5703125 C89.89436035 294.27679932 90.2496582 294.98328613 90.61572266 295.71118164 C91.375 297.47265625 91.375 297.47265625 91.375 299.47265625 C85.435 299.47265625 79.495 299.47265625 73.375 299.47265625 C68.50320704 290.43626608 63.79870971 281.39065292 59.4375 272.09765625 C55.81451919 264.38507725 51.99398275 256.81289365 47.98901367 249.29223633 C44.31741414 242.39541694 40.80928769 235.42597133 37.34277344 228.42431641 C35.69567097 225.10268745 34.03453109 221.78808796 32.375 218.47265625 C31.70826826 217.13935546 31.04160154 215.80602215 30.375 214.47265625 C30.045 213.81265625 29.715 213.15265625 29.375 212.47265625 C23.04166667 199.80598958 16.70833333 187.13932292 10.375 174.47265625 C9.88 173.4827771 9.88 173.4827771 9.375 172.47290039 C8.70807292 171.13888341 8.04140643 169.80473612 7.375 168.47045898 C5.71442466 165.1464704 4.04945394 161.82483381 2.375 158.5078125 C-0.6513428 152.5016974 -3.64010177 146.48804993 -6.46748352 140.38522339 C-9.43672804 133.98651834 -12.5244183 127.6908736 -15.85546875 121.47265625 C-22.75242955 108.47229568 -29.30626502 95.29750372 -35.88647461 82.13500977 C-37.71347251 78.48091113 -39.54602486 74.82962753 -41.37988186 71.17896748 C-42.80934022 68.33119473 -44.23513832 65.48160107 -45.65992928 62.63149071 C-46.3343747 61.28376981 -47.01009849 59.93668778 -47.68719292 58.59029579 C-57.20035994 39.66360421 -57.20035994 39.66360421 -57.0625 30.09765625 C-57.05492676 29.35523682 -57.04735352 28.61281738 -57.03955078 27.84790039 C-56.75460765 18.3127048 -53.27762909 10.36287924 -46.625 3.47265625 C-32.13892917 -8.74996601 -16.11621012 -9.37714012 0 0 Z " fill="#F1F0FC" transform="translate(319.625,123.52734375)"/>
<path d="M0 0 C3.22333617 2.89082359 4.79185918 5.33838983 6.3125 9.375 C8.69617954 15.40822617 11.49143509 21.10636683 14.44921875 26.87109375 C16 30 16 30 16.7265625 32.66796875 C18.70491808 36.29090826 22.04511534 37.32835426 25.6875 38.875 C27.22401955 39.56106083 28.76047657 40.24726172 30.296875 40.93359375 C31.07740234 41.27503418 31.85792969 41.61647461 32.66210938 41.96826172 C36.28168542 43.56562266 39.8577124 45.25336161 43.4375 46.9375 C44.66519654 47.50947541 45.89304732 48.08111995 47.12109375 48.65234375 C48.7556511 49.41750289 50.38575188 50.19287594 52 51 C52 51.66 52 52.32 52 53 C51.01902344 53.42410156 50.03804688 53.84820312 49.02734375 54.28515625 C41.90543253 57.37499192 34.80141344 60.5020709 27.75 63.75 C27.13116943 64.03109619 26.51233887 64.31219238 25.87475586 64.60180664 C19.86054752 67.29053618 19.86054752 67.29053618 15.83984375 72.234375 C15.54207031 73.06453125 15.24429688 73.8946875 14.9375 74.75 C14.61136719 75.62914062 14.28523438 76.50828125 13.94921875 77.4140625 C13.63597656 78.26742187 13.32273437 79.12078125 13 80 C12.02614564 82.34553859 11.01267149 84.67085558 10 87 C9.34 87 8.68 87 8 87 C7.84724609 88.04220703 7.84724609 88.04220703 7.69140625 89.10546875 C6.88282994 92.49052552 5.53324287 95.22287019 3.9375 98.3125 C3.11572266 99.91544922 3.11572266 99.91544922 2.27734375 101.55078125 C1.85582031 102.35902344 1.43429687 103.16726563 1 104 C-1.95812771 100.40402601 -3.9419926 96.45932474 -6 92.3125 C-6.35666748 91.59787598 -6.71333496 90.88325195 -7.08081055 90.14697266 C-9.18962964 85.85132036 -11.0555294 81.61830699 -12.33203125 76.9921875 C-13.79439724 72.63074508 -14.90357843 69.68893464 -18.9074707 67.1730957 C-20.64903442 66.43192505 -20.64903442 66.43192505 -22.42578125 65.67578125 C-23.05099167 65.40283737 -23.67620209 65.12989349 -24.32035828 64.84867859 C-26.3102908 63.98458835 -28.31046435 63.14810919 -30.3125 62.3125 C-31.64597558 61.74077903 -32.97866789 61.16722747 -34.31054688 60.59179688 C-36.77061907 59.52899074 -39.23471751 58.47950845 -41.7043457 57.4387207 C-44.86220969 56.06015248 -47.93329521 54.56957332 -51 53 C-50 50 -50 50 -46.8671875 48.28125 C-45.54125694 47.67685996 -44.21024174 47.08353122 -42.875 46.5 C-41.89660156 46.05720703 -41.89660156 46.05720703 -40.8984375 45.60546875 C-38.93828745 44.72262339 -36.97106173 43.85817795 -35 43 C-33.21142578 42.22076172 -33.21142578 42.22076172 -31.38671875 41.42578125 C-29.24732303 40.52511292 -27.08680297 39.67180182 -24.90234375 38.88671875 C-20.076503 36.93476472 -16.84185525 35.37525746 -14.0703125 30.84765625 C-12.571028 27.2703479 -11.27804018 23.66130379 -10 20 C-9.09683922 18.08756938 -8.16298604 16.18907061 -7.1875 14.3125 C-5.90678233 11.84639316 -4.8824442 9.64733259 -4 7 C-3.34 7 -2.68 7 -2 7 C-1.855625 6.030625 -1.71125 5.06125 -1.5625 4.0625 C-1 1 -1 1 0 0 Z " fill="#FB8A06" transform="translate(256,295)"/>
<path d="M0 0 C0.66 0 1.32 0 2 0 C1.3310575 3.74607798 -0.35510406 6.51421913 -2.3125 9.75 C-4.45892407 13.34350096 -6.50914963 16.91002745 -8.3125 20.6875 C-10 24 -10 24 -12 25 C-10.37317535 19.29676416 -7.66802013 14.31986097 -4.875 9.125 C-4.40707031 8.24585938 -3.93914062 7.36671875 -3.45703125 6.4609375 C-2.3087907 4.30505729 -1.15636097 2.15153223 0 0 Z " fill="#542D9F" transform="translate(250,129)"/>
<path d="M0 0 C0.99 0.33 1.98 0.66 3 1 C2.52433594 2.19496094 2.52433594 2.19496094 2.0390625 3.4140625 C0.7735881 7.78137639 0.5480985 11.85280178 0.375 16.375 C0.33632813 17.20644531 0.29765625 18.03789062 0.2578125 18.89453125 C0.16425754 20.92935156 0.08107287 22.96464416 0 25 C-2.54832365 21.17751452 -2.29484822 18.05002471 -2.25 13.625 C-2.25773437 12.86960938 -2.26546875 12.11421875 -2.2734375 11.3359375 C-2.25865398 7.10785214 -1.93686049 3.85834907 0 0 Z " fill="#6541A8" transform="translate(263,138)"/>
<path d="M0 0 C4.43601966 3.51822249 5.52033129 7.75390186 7 13 C3.71708314 10.88198913 2.87015539 9.72923739 2 6 C1.01 5.67 0.02 5.34 -1 5 C-1.1546875 5.8971875 -1.1546875 5.8971875 -1.3125 6.8125 C-2.08876455 9.28243264 -3.07088921 10.32251235 -5 12 C-4.67 10.35 -4.34 8.7 -4 7 C-3.34 7 -2.68 7 -2 7 C-1.855625 6.030625 -1.71125 5.06125 -1.5625 4.0625 C-1 1 -1 1 0 0 Z " fill="#E17D40" transform="translate(256,295)"/>
<path d="M0 0 C1.60728272 4.0182068 0.27930357 7.01994445 -1 11 C-1.34135927 12.33130115 -1.67925956 13.66358148 -2 15 C-2.99 14.67 -3.98 14.34 -5 14 C-5.33 14.99 -5.66 15.98 -6 17 C-5.53341459 12.33414589 -4.11993472 8.90002537 -1.9375 4.83203125 C-0.86837089 2.85621068 -0.86837089 2.85621068 0 0 Z " fill="#69287D" transform="translate(272,365)"/>
<path d="M0 0 C-1.79036458 0.9765625 -3.58072917 1.953125 -5.37109375 2.9296875 C-7.16618315 3.91410024 -7.16618315 3.91410024 -8 6 C-7.34 6 -6.68 6 -6 6 C-6 6.66 -6 7.32 -6 8 C-7.98 7.34 -9.96 6.68 -12 6 C-11 3 -11 3 -9.00390625 1.796875 C-8.19824219 1.45140625 -7.39257812 1.1059375 -6.5625 0.75 C-5.75941406 0.39421875 -4.95632812 0.0384375 -4.12890625 -0.328125 C-2 -1 -2 -1 0 0 Z " fill="#DA7847" transform="translate(217,342)"/>
<path d="M0 0 C0.99 0 1.98 0 3 0 C3 0.99 3 1.98 3 3 C3.66 3 4.32 3 5 3 C5.53190541 4.43344 6.05015258 5.87195367 6.5625 7.3125 C6.85253906 8.11300781 7.14257812 8.91351563 7.44140625 9.73828125 C8 12 8 12 7 15 C4.69 10.05 2.38 5.1 0 0 Z " fill="#52289C" transform="translate(400,400)"/>
<path d="M0 0 C6.63498399 0.35544557 10.63187218 2.13095043 16 6 C15.01 6.495 15.01 6.495 14 7 C11.56442428 6.09176973 9.23804483 5.13171929 6.875 4.0625 C6.21628906 3.77181641 5.55757812 3.48113281 4.87890625 3.18164062 C3.24950495 2.46139802 1.62433868 1.73158857 0 1 C0 0.67 0 0.34 0 0 Z " fill="#D57544" transform="translate(215,352)"/>
<path d="M0 0 C3.88704087 4.25723524 6 10.27543399 6 16 C-0.30681818 6.75 -0.30681818 6.75 0 0 Z " fill="#732E75" transform="translate(243,370)"/>
<path d="M0 0 C-0.99 0.33 -1.98 0.66 -3 1 C-3 1.66 -3 2.32 -3 3 C-6.22791555 5.1519437 -7.28400809 5.20086443 -11 5 C-8.10998474 1.78887193 -4.47884754 -2.23942377 0 0 Z " fill="#702A78" transform="translate(284,360)"/>
<path d="M0 0 C0.66 0 1.32 0 2 0 C2 0.99 2 1.98 2 3 C3.32 3 4.64 3 6 3 C5.34 4.98 4.68 6.96 4 9 C1.49701566 6.06171403 0.53069061 3.82097239 0 0 Z " fill="#ED8634" transform="translate(253,390)"/>
<path d="M0 0 C1.22419163 3.93795909 0.48320272 6.16112237 -1 10 C-1.66 10 -2.32 10 -3 10 C-3.66 11.32 -4.32 12.64 -5 14 C-5 10.44842089 -4.00581762 8.51236245 -2.5 5.3125 C-2.0359375 4.31863281 -1.571875 3.32476562 -1.09375 2.30078125 C-0.55234375 1.16189453 -0.55234375 1.16189453 0 0 Z " fill="#D17442" transform="translate(250,307)"/>
<path d="M0 0 C0.66 0 1.32 0 2 0 C-0.89066059 9.59453303 -0.89066059 9.59453303 -4 13 C-4 11.35 -4 9.7 -4 8 C-3.34 8 -2.68 8 -2 8 C-2 6.35 -2 4.7 -2 3 C-1.34 3 -0.68 3 0 3 C0 2.01 0 1.02 0 0 Z " fill="#66257B" transform="translate(249,305)"/>
<path d="M0 0 C3.36591427 2.72478774 4.44226276 6.06856792 6 10 C5.01 10 4.02 10 3 10 C2.49596232 8.70990357 1.99690074 7.41786211 1.5 6.125 C1.2215625 5.40570313 0.943125 4.68640625 0.65625 3.9453125 C0 2 0 2 0 0 Z " fill="#EADCF9" transform="translate(396,331)"/>
<path d="M0 0 C2.22825644 2.22825644 2.69239369 3.65761628 3.625 6.625 C4.01558594 7.85089844 4.01558594 7.85089844 4.4140625 9.1015625 C4.60742188 9.72804688 4.80078125 10.35453125 5 11 C3.0625 10 3.0625 10 1 8 C0.33450549 5.30075428 0.18319237 2.79368363 0 0 Z " fill="#D47542" transform="translate(268,319)"/>
<path d="M0 0 C3.36591427 2.72478774 4.44226276 6.06856792 6 10 C5.01 10 4.02 10 3 10 C2.49596232 8.70990357 1.99690074 7.41786211 1.5 6.125 C1.2215625 5.40570313 0.943125 4.68640625 0.65625 3.9453125 C0 2 0 2 0 0 Z " fill="#EADCF9" transform="translate(380,299)"/>
<path d="M0 0 C0.33 0.99 0.66 1.98 1 3 C-0.62339805 4.70884005 -2.29319053 6.37446717 -4 8 C-4.66 8 -5.32 8 -6 8 C-5.67 7.01 -5.34 6.02 -5 5 C-4.34 5 -3.68 5 -3 5 C-2.5359375 4.0409375 -2.5359375 4.0409375 -2.0625 3.0625 C-1 1 -1 1 0 0 Z " fill="#DED0F2" transform="translate(484,430)"/>
<path d="M0 0 C0.66 0 1.32 0 2 0 C2 1.32 2 2.64 2 4 C2.66 4 3.32 4 4 4 C4.33 6.31 4.66 8.62 5 11 C3 10 3 10 2.1484375 7.96875 C1.89320313 7.1540625 1.63796875 6.339375 1.375 5.5 C0.98441406 4.27796875 0.98441406 4.27796875 0.5859375 3.03125 C0 1 0 1 0 0 Z " fill="#D77640" transform="translate(245,373)"/>
<path d="M0 0 C1.32 0.33 2.64 0.66 4 1 C4.33 2.98 4.66 4.96 5 7 C4.34 7 3.68 7 3 7 C2.01 4.69 1.02 2.38 0 0 Z " fill="#5D35A5" transform="translate(385,371)"/>
<path d="M0 0 C5.75 1.875 5.75 1.875 8 3 C8 3.66 8 4.32 8 5 C6.68 5.33 5.36 5.66 4 6 C4 4.68 4 3.36 4 2 C2.68 2 1.36 2 0 2 C0 1.34 0 0.68 0 0 Z " fill="#EA8439" transform="translate(300,343)"/>
<path d="M0 0 C1.32 1.65 2.64 3.3 4 5 C2.02 5.99 2.02 5.99 0 7 C-0.93423645 3.98968256 -1.04449911 3.13349732 0 0 Z " fill="#5729A3" transform="translate(419,407)"/>
<path d="M0 0 C0.66 0.33 1.32 0.66 2 1 C0.68 3.64 -0.64 6.28 -2 9 C-3.10102197 5.69693408 -2.95067299 4.28414305 -2 1 C-1.34 0.67 -0.68 0.34 0 0 Z " fill="#E5D9F7" transform="translate(118,389)"/>
<path d="M0 0 C0.66 0.33 1.32 0.66 2 1 C0.68 3.64 -0.64 6.28 -2 9 C-3.10102197 5.69693408 -2.95067299 4.28414305 -2 1 C-1.34 0.67 -0.68 0.34 0 0 Z " fill="#E5D9F7" transform="translate(134,357)"/>
<path d="M0 0 C1.07349791 4.29399165 0.79682816 5.19495213 -1 9 C-1.99 8.67 -2.98 8.34 -4 8 C-2.68 5.36 -1.36 2.72 0 0 Z " fill="#D7763E" transform="translate(243,322)"/>
<path d="M0 0 C0.66 0.33 1.32 0.66 2 1 C0.68 3.64 -0.64 6.28 -2 9 C-3.10102197 5.69693408 -2.95067299 4.28414305 -2 1 C-1.34 0.67 -0.68 0.34 0 0 Z " fill="#E5D9F7" transform="translate(150,325)"/>
<path d="M0 0 C0.66 0.33 1.32 0.66 2 1 C0.68 3.64 -0.64 6.28 -2 9 C-3.10102197 5.69693408 -2.95067299 4.28414305 -2 1 C-1.34 0.67 -0.68 0.34 0 0 Z " fill="#E5D9F7" transform="translate(166,293)"/>
<path d="M0 0 C0.66 0.33 1.32 0.66 2 1 C0.68 3.64 -0.64 6.28 -2 9 C-3.10102197 5.69693408 -2.95067299 4.28414305 -2 1 C-1.34 0.67 -0.68 0.34 0 0 Z " fill="#E5D9F7" transform="translate(182,261)"/>
<path d="M0 0 C0.66 0.33 1.32 0.66 2 1 C0.68 3.64 -0.64 6.28 -2 9 C-3.10102197 5.69693408 -2.95067299 4.28414305 -2 1 C-1.34 0.67 -0.68 0.34 0 0 Z " fill="#E5D9F7" transform="translate(198,229)"/>
<path d="M0 0 C0.66 0.33 1.32 0.66 2 1 C0.68 3.64 -0.64 6.28 -2 9 C-3.10102197 5.69693408 -2.95067299 4.28414305 -2 1 C-1.34 0.67 -0.68 0.34 0 0 Z " fill="#E5D9F7" transform="translate(214,197)"/>
<path d="M0 0 C0.66 0.33 1.32 0.66 2 1 C0.68 3.64 -0.64 6.28 -2 9 C-3.10102197 5.69693408 -2.95067299 4.28414305 -2 1 C-1.34 0.67 -0.68 0.34 0 0 Z " fill="#E5D9F7" transform="translate(230,165)"/>
</svg>
